<?xml version="1.0" standalone="no"?>
<!DOCTYPE svg PUBLIC "-//W3C//DTD SVG 20010904//EN"
 "http://www.w3.org/TR/2001/REC-SVG-20010904/DTD/svg10.dtd">
<svg version="1.0" xmlns="http://www.w3.org/2000/svg"
 width="1024.000000pt" height="445.000000pt" viewBox="0 0 1024.000000 445.000000"
 preserveAspectRatio="xMidYMid meet">

<g transform="translate(0.000000,445.000000) scale(0.100000,-0.100000)"
fill="#000000" stroke="none">
<path d="M5245 3713 c-165 -11 -410 -75 -540 -141 -93 -47 -199 -126 -278
-207 -82 -84 -109 -115 -102 -115 2 0 -7 -12 -20 -26 -13 -14 -34 -46 -45 -69
-12 -24 -30 -55 -41 -69 -11 -14 -17 -26 -14 -26 4 0 0 -11 -9 -25 -9 -14 -14
-25 -10 -25 4 0 0 -7 -7 -17 -8 -9 -13 -24 -11 -34 2 -9 -2 -20 -8 -24 -5 -3
-10 -17 -10 -29 0 -13 -7 -29 -16 -37 -10 -8 -13 -21 -9 -37 3 -14 0 -31 -7
-40 -8 -9 -14 -47 -15 -91 -6 -217 -4 -263 13 -288 8 -13 12 -28 9 -33 -7 -11
7 -63 30 -115 7 -16 20 -47 28 -67 31 -76 128 -207 210 -284 141 -133 308
-221 532 -279 517 -133 1060 -19 1363 288 l64 64 -139 6 c-76 3 -172 13 -214
22 l-77 16 -93 -50 c-52 -27 -137 -62 -189 -78 -90 -26 -106 -27 -295 -28
-210 0 -224 2 -375 56 -115 42 -239 125 -327 218 -273 291 -230 767 95 1044
279 237 771 299 1094 137 55 -28 57 -28 110 -14 77 20 272 37 342 29 l60 -7
-35 37 c-56 60 -185 152 -272 194 -160 77 -333 123 -538 141 -111 10 -149 10
-254 3z"/>
<path d="M2282 3629 c2 -4 69 -66 149 -138 l146 -130 314 -3 314 -3 85 -41
c128 -62 223 -156 260 -259 17 -46 22 -198 7 -235 -5 -14 -10 -33 -11 -42 -1
-22 -57 -97 -111 -149 -81 -80 -289 -159 -419 -159 -82 0 -83 0 133 -229 138
-148 147 -157 241 -257 36 -38 112 -120 170 -183 58 -63 119 -129 136 -147
l31 -33 212 -1 c127 0 211 3 209 9 -4 11 -202 217 -460 479 l-191 193 64 38
c128 77 219 173 283 296 49 95 69 181 69 295 0 187 -51 308 -193 451 -106 107
-192 164 -311 203 -155 52 -217 57 -692 55 -241 -1 -436 -5 -435 -10z"/>
<path d="M6204 3627 c58 -37 152 -110 237 -183 l95 -83 350 -3 351 -3 84 -42
c126 -62 215 -159 247 -268 17 -60 21 -199 6 -220 -7 -9 -10 -23 -8 -29 3 -7
-2 -18 -10 -25 -8 -7 -12 -19 -9 -27 3 -8 0 -14 -6 -14 -6 0 -11 -6 -11 -13 0
-8 -26 -39 -57 -71 -44 -43 -83 -70 -160 -107 -106 -51 -181 -68 -295 -69 -36
0 -58 -4 -58 -11 0 -6 73 -90 163 -186 89 -97 211 -230 271 -297 60 -67 159
-174 219 -238 l110 -118 213 0 c118 0 214 3 214 7 0 8 -84 96 -397 416 -134
136 -243 251 -243 255 0 4 28 22 63 41 83 45 223 186 270 271 159 291 89 630
-176 843 -81 66 -130 93 -232 130 -146 52 -215 57 -754 56 -388 0 -492 -3
-477 -12z"/>
<path d="M3481 1474 c-30 -13 -32 -16 -18 -27 13 -9 17 -34 19 -109 1 -53 0
-99 -2 -101 -3 -3 -31 0 -63 5 -54 9 -61 8 -114 -18 -61 -31 -90 -63 -98 -106
-3 -15 -9 -38 -14 -50 -12 -34 4 -147 26 -176 52 -69 136 -90 213 -53 54 26
60 26 60 0 0 -19 4 -20 53 -14 28 4 55 9 60 12 12 7 -3 23 -22 23 -27 0 -31
41 -31 353 0 309 4 293 -69 261z m-25 -278 c27 -23 28 -25 32 -166 5 -166 4
-170 -84 -170 -41 0 -59 5 -82 25 -77 65 -83 248 -11 309 41 35 106 36 145 2z"/>
<path d="M8290 1483 c-8 -3 -26 -10 -39 -15 l-24 -9 21 -22 c20 -21 21 -34 21
-242 1 -291 -4 -337 -38 -358 -25 -16 -24 -16 62 -17 48 0 87 3 87 6 0 3 -11
15 -25 26 l-25 19 0 310 c0 321 0 317 -40 302z"/>
<path d="M9298 1479 c-45 -7 -62 -20 -79 -62 -7 -18 -19 -40 -27 -49 -8 -10
-12 -24 -9 -32 4 -9 2 -18 -3 -21 -6 -4 -10 -19 -10 -35 0 -18 -8 -34 -22 -44
-17 -12 -19 -16 -6 -16 10 0 18 -12 23 -37 9 -49 -5 -325 -18 -341 -16 -20 -4
-23 74 -20 l74 3 -32 18 -33 18 0 174 0 175 33 1 c64 1 120 19 60 19 -17 0
-45 3 -62 6 l-31 7 0 84 c0 70 4 90 21 114 11 16 27 29 35 29 21 0 77 -30 87
-46 18 -32 45 3 27 36 -11 21 -50 28 -102 19z"/>
<path d="M975 1451 c-2 -5 9 -18 26 -30 l30 -22 -1 -266 c-1 -261 -2 -266 -23
-284 -12 -9 -19 -20 -16 -24 4 -3 42 -5 85 -3 l79 3 -32 18 -33 18 0 134 0
135 33 0 c22 0 41 -8 54 -22 27 -30 112 -159 149 -226 32 -58 45 -65 125 -60
l54 3 -37 17 c-28 13 -54 43 -116 135 -44 65 -89 128 -101 140 l-21 22 51 22
c67 29 99 76 99 144 0 75 -32 115 -105 134 -49 12 -293 22 -300 12z m265 -36
c43 -22 61 -55 62 -116 2 -65 -19 -102 -73 -130 -39 -19 -76 -24 -116 -13 -22
6 -23 10 -23 139 0 119 2 134 18 139 28 8 100 -2 132 -19z"/>
<path d="M4553 1441 c-28 -11 -64 -27 -80 -36 -28 -17 -103 -129 -103 -156 0
-8 -7 -23 -15 -33 -20 -26 -20 -128 0 -166 9 -17 15 -33 15 -37 0 -41 56 -113
113 -146 87 -50 170 -63 273 -41 91 19 114 35 114 81 l0 37 -17 -24 c-42 -60
-89 -84 -168 -84 -160 -1 -276 151 -262 340 12 164 103 264 240 264 95 0 163
-41 187 -115 6 -19 15 -35 19 -35 11 0 11 103 0 117 -19 22 -137 53 -203 53
-33 -1 -84 -9 -113 -19z"/>
<path d="M7300 1454 c0 -3 11 -15 25 -26 l25 -19 0 -272 c0 -264 -1 -271 -22
-294 l-21 -23 84 0 84 1 -27 22 c-28 23 -28 23 -28 154 0 107 3 132 15 137 19
7 46 -3 63 -23 26 -32 162 -242 162 -251 0 -25 34 -40 91 -40 32 0 59 3 59 8
0 4 -15 14 -33 23 -32 15 -42 29 -147 196 -68 108 -65 100 -38 106 40 11 97
66 109 107 23 78 -18 161 -89 179 -44 11 -312 24 -312 15z m224 -23 c54 -13
94 -54 101 -106 9 -55 -10 -119 -41 -144 -29 -22 -101 -36 -139 -27 l-25 6 0
134 c0 120 2 135 18 139 28 8 45 7 86 -2z"/>
<path d="M8525 1404 c-9 -9 -15 -28 -13 -43 6 -48 78 -36 78 13 0 42 -36 59
-65 30z"/>
<path d="M2390 1239 c-71 -11 -118 -34 -126 -63 -14 -59 36 -64 66 -6 33 64
70 75 118 35 32 -27 47 -76 36 -118 -4 -19 -15 -27 -42 -32 -21 -3 -66 -21
-101 -38 -48 -24 -67 -40 -77 -64 -21 -48 -17 -71 15 -104 39 -39 100 -40 154
-3 21 14 39 24 40 22 19 -37 28 -43 61 -46 23 -2 47 3 62 13 26 17 23 41 -3
31 -36 -14 -43 11 -43 156 0 187 -9 207 -100 222 -8 1 -35 -1 -60 -5z m91
-231 c3 -100 -4 -124 -43 -137 -46 -16 -69 -14 -95 11 -27 25 -29 64 -5 95 22
27 90 63 119 63 19 0 23 -6 24 -32z"/>
<path d="M2723 1237 c-45 -13 -66 -27 -40 -27 8 0 23 -7 31 -16 13 -13 15 -40
12 -172 -3 -146 -5 -157 -25 -170 -37 -25 -23 -32 59 -32 44 0 80 3 80 6 0 4
-11 17 -25 30 -25 23 -26 25 -23 166 l3 142 34 23 c58 39 128 25 155 -31 22
-48 17 -277 -7 -304 -9 -10 -17 -22 -17 -25 0 -4 33 -7 74 -7 74 0 106 12 66
25 -33 10 -40 46 -40 191 0 148 -9 181 -55 202 -14 7 -43 12 -63 12 -38 0
-114 -30 -126 -49 -13 -21 -26 -11 -26 19 0 33 -4 34 -67 17z"/>
<path d="M3845 1245 c-5 -1 -36 -11 -68 -20 -60 -18 -95 -51 -83 -80 10 -28
46 -17 61 19 16 37 49 66 76 66 32 0 77 -48 84 -90 10 -59 1 -74 -52 -87 -87
-20 -160 -59 -178 -92 -13 -26 -14 -38 -4 -72 22 -72 111 -93 185 -43 l38 26
19 -26 c21 -29 58 -34 102 -14 32 14 32 28 0 28 -39 0 -46 28 -44 180 1 161
-6 182 -68 199 -38 11 -50 12 -68 6z m68 -226 c3 -11 3 -45 0 -76 -6 -51 -9
-56 -39 -69 -46 -19 -67 -18 -98 7 -53 42 -18 119 66 146 50 17 65 15 71 -8z"/>
<path d="M5450 1230 c-30 -10 -50 -18 -43 -19 6 -1 19 -8 27 -17 23 -22 23
-310 1 -340 -8 -10 -15 -22 -15 -26 0 -5 32 -8 70 -8 39 0 70 3 70 6 0 4 -11
17 -25 30 -24 22 -25 27 -25 154 0 72 5 140 10 151 13 24 61 49 95 49 83 0
114 -63 110 -225 -2 -95 -14 -145 -35 -145 -6 0 -10 -4 -10 -10 0 -6 32 -10
75 -10 77 0 93 9 51 28 -24 11 -25 12 -28 176 -3 160 -4 165 -28 191 -24 26
-29 27 -98 23 -54 -4 -81 -11 -102 -27 -37 -27 -38 -27 -42 8 l-3 29 -55 -18z"/>
<path d="M6095 1242 c-82 -13 -165 -58 -165 -88 0 -6 -7 -17 -16 -25 -13 -11
-15 -30 -12 -103 3 -76 8 -97 28 -128 62 -93 203 -108 274 -29 22 24 10 28
-18 6 -11 -8 -37 -15 -58 -15 -96 0 -168 86 -168 200 0 86 43 153 106 166 34
6 80 -23 94 -62 16 -42 60 -26 60 21 0 36 -68 67 -125 57z"/>
<path d="M6425 1236 c-51 -15 -105 -64 -105 -96 0 -9 -4 -20 -10 -26 -11 -11
-15 -95 -7 -142 7 -39 36 -88 72 -122 23 -22 36 -25 99 -25 64 0 77 3 110 29
20 15 35 30 32 33 -3 3 -12 0 -21 -7 -8 -7 -39 -13 -68 -14 -69 -1 -115 26
-144 84 -25 48 -31 119 -10 121 6 0 67 0 135 -1 l122 -1 0 33 c0 18 -8 48 -18
67 -35 69 -98 91 -187 67z m80 -20 c33 -14 65 -59 65 -90 0 -27 -39 -38 -120
-34 -43 1 -82 6 -86 10 -13 14 30 90 61 109 36 23 37 23 80 5z"/>
<path d="M6755 1238 c-16 -5 -36 -12 -44 -14 -9 -3 -6 -10 10 -23 23 -18 24
-25 26 -174 3 -143 1 -156 -18 -181 l-20 -26 75 0 c42 0 76 3 76 6 0 3 -11 15
-25 26 -24 19 -25 23 -25 147 0 117 2 131 23 162 26 38 59 48 83 24 24 -24 68
-16 72 13 4 30 -14 52 -43 52 -36 0 -91 -27 -114 -56 l-21 -27 0 42 c0 44 -4
46 -55 29z"/>
<path d="M8875 1241 c-53 -13 -94 -41 -121 -80 -21 -32 -26 -55 -30 -127 -6
-86 -5 -90 25 -136 36 -56 78 -80 141 -80 53 0 94 18 130 57 l25 28 -25 -15
c-95 -58 -210 -6 -239 107 -20 79 -27 75 122 75 74 0 136 2 139 5 10 10 -11
95 -29 120 -10 13 -35 31 -56 40 -41 16 -39 16 -82 6z m70 -39 c24 -18 43 -88
27 -104 -10 -10 -175 -14 -190 -4 -9 5 -8 17 3 44 37 87 97 111 160 64z"/>
<path d="M1775 1230 c3 -6 12 -10 20 -10 22 0 64 -58 71 -98 8 -44 21 -71 44
-94 10 -9 21 -37 24 -61 4 -25 14 -51 22 -58 8 -7 14 -19 13 -28 -10 -105 45
-62 85 67 10 31 -11 29 -26 -3 -11 -24 -13 -22 -44 49 -18 42 -44 105 -56 141
-22 63 -22 67 -5 79 9 7 17 15 17 18 0 3 -38 5 -85 6 -53 1 -83 -2 -80 -8z"/>
<path d="M2075 1230 c-3 -5 3 -10 14 -10 18 0 38 -21 40 -42 0 -4 -9 -27 -19
-50 -11 -24 -20 -54 -20 -68 1 -17 14 3 41 60 22 47 44 86 48 88 5 1 17 9 27
17 17 13 12 14 -53 15 -39 0 -75 -4 -78 -10z"/>
<path d="M5060 1228 c-49 -14 -78 -43 -72 -73 7 -36 28 -31 57 15 33 53 68 69
103 49 41 -23 62 -67 55 -116 -5 -40 -8 -44 -47 -54 -128 -35 -195 -77 -194
-123 2 -95 102 -137 188 -80 22 15 41 25 43 23 1 -2 7 -13 13 -24 15 -27 94
-34 114 -10 12 14 11 18 -1 26 -8 5 -22 9 -31 9 -16 0 -18 13 -18 140 0 150
-11 199 -48 219 -25 13 -114 13 -162 -1z m142 -249 c4 -79 -3 -96 -49 -108
-56 -16 -71 -14 -99 15 -29 28 -27 63 4 98 21 23 89 55 119 56 19 0 22 -6 25
-61z"/>
<path d="M7935 1215 c-69 -34 -89 -72 -89 -178 -1 -99 17 -143 78 -188 37 -28
47 -30 102 -27 48 3 69 10 98 31 48 37 46 49 -4 25 -52 -26 -114 -18 -154 19
-35 32 -65 97 -66 141 l0 32 136 0 137 0 -7 41 c-19 120 -111 162 -231 104z
m128 -12 c30 -28 48 -73 36 -94 -8 -17 -22 -19 -104 -19 -79 0 -95 3 -95 15 0
27 28 71 61 99 35 30 68 29 102 -1z"/>
<path d="M8511 1229 c-23 -9 -23 -10 -7 -28 15 -17 18 -41 17 -177 -1 -124 -5
-162 -16 -174 -8 -9 -15 -20 -15 -23 0 -4 32 -7 70 -7 74 0 85 8 48 33 -23 14
-23 17 -20 201 l2 186 -27 -1 c-16 0 -39 -5 -52 -10z"/>
<path d="M1540 1210 c14 -11 27 -20 30 -20 4 0 12 -17 19 -37 7 -21 17 -49 23
-63 6 -14 14 -34 18 -45 4 -11 21 -51 38 -90 16 -38 34 -83 39 -100 18 -56 36
-40 85 73 26 59 52 121 58 137 l11 30 -25 -30 c-14 -16 -37 -59 -52 -94 -26
-61 -28 -62 -39 -40 -31 59 -106 263 -101 274 3 8 15 15 28 18 13 2 -17 5 -67
5 l-90 2 25 -20z"/>
</g>
</svg>
