<?xml version="1.0" standalone="no"?>
<!DOCTYPE svg PUBLIC "-//W3C//DTD SVG 20010904//EN"
 "http://www.w3.org/TR/2001/REC-SVG-20010904/DTD/svg10.dtd">
<svg version="1.0" xmlns="http://www.w3.org/2000/svg"
 width="1263.000000pt" height="476.000000pt" viewBox="0 0 1263.000000 476.000000"
 preserveAspectRatio="xMidYMid meet">

<g transform="translate(0.000000,476.000000) scale(0.100000,-0.100000)"
fill="#000000" stroke="none">
<path d="M6440 4589 c-345 -26 -830 -150 -1109 -285 -122 -58 -288 -164 -406
-259 -88 -70 -366 -347 -403 -400 -15 -22 -49 -68 -75 -103 -26 -35 -59 -87
-74 -115 -14 -29 -46 -83 -71 -122 -25 -38 -45 -77 -45 -85 0 -8 -11 -34 -25
-58 -13 -24 -22 -46 -19 -49 4 -3 -2 -18 -13 -33 -11 -16 -20 -43 -20 -62 0
-18 -9 -46 -20 -63 -11 -16 -20 -42 -20 -56 0 -14 -13 -46 -30 -70 -25 -37
-29 -50 -24 -86 4 -29 1 -52 -10 -74 -24 -49 -34 -140 -40 -369 -6 -245 4
-376 34 -443 12 -27 18 -56 15 -67 -9 -29 19 -128 76 -263 70 -166 107 -237
181 -344 355 -515 834 -819 1539 -977 292 -65 573 -92 884 -83 476 14 869 106
1250 292 254 125 423 245 620 444 l110 111 -35 0 c-222 1 -606 36 -765 71
l-92 19 -164 -84 c-187 -97 -351 -163 -494 -201 -131 -35 -386 -49 -705 -41
-269 8 -334 17 -515 76 -272 88 -492 215 -711 408 -425 374 -579 984 -392
1546 187 563 654 969 1308 1137 203 51 370 72 600 72 350 1 583 -48 882 -185
123 -56 116 -56 288 -19 161 35 395 54 592 49 l177 -5 -35 41 c-46 54 -139
134 -249 216 -414 307 -896 467 -1569 520 -146 11 -259 11 -426 -1z"/>
<path d="M360 4423 c-63 -2 -118 -7 -122 -11 -8 -8 204 -206 485 -454 l119
-105 659 -6 659 -7 142 -71 c158 -79 224 -121 324 -206 141 -119 255 -302 274
-438 5 -38 10 -135 10 -215 0 -175 -26 -291 -86 -377 -58 -84 -159 -198 -220
-247 -190 -155 -533 -284 -805 -301 -125 -8 -139 -12 -139 -34 0 -39 44 -88
660 -746 212 -226 509 -545 660 -709 l275 -298 428 4 c263 3 431 8 437 14 13
13 -212 251 -864 916 l-487 498 47 27 c110 66 254 166 325 226 247 212 427
522 481 827 16 97 16 393 -1 490 -31 176 -104 344 -211 490 -110 148 -328 358
-476 457 -186 125 -456 222 -739 264 -77 11 -1544 21 -1835 12z"/>
<path d="M8508 4423 c-32 -2 -58 -7 -58 -11 1 -4 42 -36 93 -72 116 -81 293
-224 463 -372 l132 -115 737 -6 736 -7 121 -61 c162 -83 257 -148 349 -239
134 -132 217 -286 239 -445 15 -112 13 -319 -5 -362 -8 -19 -15 -48 -15 -63 0
-15 -9 -39 -20 -53 -11 -14 -20 -38 -20 -54 0 -17 -8 -33 -20 -41 -11 -7 -20
-18 -20 -25 0 -18 -107 -139 -170 -193 -74 -63 -133 -101 -268 -168 -199 -100
-353 -141 -562 -151 -148 -7 -190 -13 -190 -25 0 -14 113 -143 449 -510 169
-184 376 -411 461 -505 84 -93 264 -289 399 -434 135 -145 254 -274 264 -287
l19 -24 307 0 c371 0 581 9 581 24 0 13 -224 248 -821 862 -489 503 -513 529
-504 543 3 6 47 35 98 66 124 73 230 160 357 291 140 144 201 226 265 359 150
308 183 627 100 950 -64 244 -220 500 -411 672 -201 181 -358 274 -604 358
-164 56 -304 81 -527 95 -153 9 -1815 11 -1955 3z"/>
</g>
</svg>
